<!--?xml version="1.0" encoding="utf-8"?-->
<!-- Generator: Adobe Illustrator 18.1.1, SVG Export Plug-In . SVG Version: 6.00 Build 0)  -->

<svg version="1.1" id="_x31_0" xmlns="http://www.w3.org/2000/svg" xmlns:xlink="http://www.w3.org/1999/xlink" x="0px" y="0px" viewBox="0 0 512 512" style="width: 256px; height: 256px; opacity: 1;" xml:space="preserve">
<style type="text/css">
	.st0{fill:#fff;}
</style>
<g>
	<path class="st0" d="M478.549,50.142c-7.746-9.902-18.93-16.164-31.39-17.715L186.008,0.298
		c-13.707-1.551-26.742,3.062-36.414,11.574c-0.035,0.035-0.074,0.066-0.114,0.098c-8.324,7.378-14.141,17.648-15.606,29.484
		l-2.082,17.004l-0.278,2.176h0.012l-0.008,0.082h215.209c35.566,0,64.594,28.965,64.594,64.598v342.315
		c0,6.398-0.941,12.594-2.691,18.457c18.524-4.511,33.207-20.074,35.633-40.078l43.985-361.042
		C489.795,72.438,486.361,60.11,478.549,50.142z"></path>
	<path class="st0" d="M346.712,80.907H67.769c-24.469,0-44.379,19.906-44.379,44.375v342.338C23.389,492.094,43.3,512,67.769,512
		h278.943c24.469,0,44.375-19.906,44.375-44.379V125.282C391.087,100.814,371.181,80.907,346.712,80.907z M48.749,349.749h313.194
		h3.79v117.872c0,10.488-8.531,19.02-19.02,19.02H67.769c-10.488,0-19.02-8.532-19.02-19.02V349.749z M365.732,332.975H50.605
		h-1.856V213.709h316.983v118.618V332.975z M365.732,196.58v0.355H48.749v-71.653c0-10.484,8.532-19.016,19.02-19.016h278.943
		c10.489,0,19.02,8.532,19.02,19.016V196.58z"></path>
	<path class="st0" d="M121.5,232.33c-18.032,0-37.493,10.546-37.493,27.582c0,8.395,6.023,14.485,14.321,14.485
		c2.906,0,5.742-1.133,8.098-3.164c0.538-0.442,1.074-0.89,1.562-1.41c-0.34,2.062-0.664,4.164-0.985,6.274
		c-1.109,7.258-2.258,14.766-4.336,21.946l0.086,1.695l1.73,2.172h1.457c1.34,0,2.614-0.313,3.793-0.918
		c3.543,0.582,6.973,0.918,9.469,0.918c27.25,0,37.407-22.797,37.407-37.164C156.609,234.67,129.734,232.33,121.5,232.33z
		 M108.613,265.389c-0.278-0.5-0.606-0.886-0.801-1.078l-1.481-1.462l-1.886,0.867c-1.164,0.524-2.477,0.79-3.906,0.79
		c-4.699,0-6.886-1.954-6.886-6.145c0-7.054,6.809-12.75,16.898-15.176c2.66-0.617,5.508-1.05,8.582-1.16
		c-5.836,2.606-8.094,9.863-9.497,17.531C109.265,261.506,108.929,263.467,108.613,265.389z M115.761,292.358
		c1.59-4.797,2.511-10.922,3.406-16.859l0.715-4.652c0.863-4.742,1.485-8.902,2.031-12.594c0.855-5.762,1.535-10.312,2.653-12.324
		l0.422-2.031l-1.551-1.961c13.934,0.66,20.997,8.629,20.997,23.707c0,11.328-7.168,27.274-23.098,27.274
		c-1.496,0-3.066-0.203-4.621-0.45C116.39,292.405,116.085,292.436,115.761,292.358z"></path>
	<path class="st0" d="M174.558,247.076c3.649,0,6.734-3.09,6.734-6.738c0-3.652-3.086-6.738-6.734-6.738
		c-3.59,0-6.734,3.152-6.734,6.738C167.824,243.924,170.969,247.076,174.558,247.076z"></path>
	<path class="st0" d="M291.258,275.264l0.012-0.043v-0.004l0.019-0.074l-8.434-2.039l-0.234-0.062v0.004l-0.078-0.02l-0.614,3.074
		c-1.594,7.886-7.082,15.918-10.879,15.918c-0.84,0-1.886,0-1.886-4.594c0-3.426,0.871-7.949,1.602-11.714
		c0.57-2.942,1.019-5.27,1.019-6.871c0-9.02-8.582-10.962-15.48-12.52l-0.559-0.133c-0.41-4.55-2.41-7.328-6.226-8.301
		c-3.375,0-6.867,2.848-6.867,7.61c0,3.305,1.258,5.75,3.738,7.289c-0.367,2.426-1.286,7.856-2.969,13.867
		c-1.801,7.899-7.02,15.368-10.746,15.368c-1.106,0-3.695,0-3.695-6.477c0-3.438,1.332-12.879,3.969-28.059l0.414-2.39l-2.25-0.922
		c-1.152-0.473-2.426-0.723-3.683-0.723c-1.466,0-2.813,0.34-3.946,0.985c-2.359-0.758-4.996-1.141-7.844-1.141
		c-12.793,0-20.129,11.078-22.722,21.078l-5.325-1.289l-0.148-0.039v0.004l-0.078-0.02l-0.621,3.074
		c-1.594,7.886-7.082,15.918-10.879,15.918c-1.106,0-3.687,0-3.687-6.477c0-4.52,1.179-10.742,2.246-16.344
		c0.946-4.969,1.844-9.656,1.844-12.883v-2.984l0.008-0.328h-0.008v-0.082l-3.363,0.39c-2.59,0.301-4.394,1.114-6.817,2.512
		l-1.515,0.871v1.746c0,1.691-0.692,5.566-1.363,9.316c-1.086,6.062-2.317,12.934-2.317,18.195c0,9.993,4.649,15.958,12.434,15.958
		c7.711,0,13.086-5.68,16.547-11.286c0.828-1.312,1.59-2.633,2.246-3.914c1.238,9.367,6.402,15.199,13.859,15.199
		c4.418,0,8.305-1.969,11.66-5.645c0.45-0.473,0.918-0.878,1.352-1.414c2.035,4.57,5.914,7.058,11.14,7.058
		c11.383,0,18.962-12.793,22.005-23.797l0.535-2.387c0.874-3.519,1.531-6.75,2.046-9.859c0.031-0.153,0.074-0.324,0.102-0.473
		c5.27,1.394,5.27,1.844,5.27,4.84c0,1.824-0.457,4.39-0.961,7.226c-0.582,3.246-1.25,6.926-1.25,10.211
		c0,12.851,7.438,14.238,10.637,14.238c10.898,0,18.902-11.95,22.001-23.794L291.258,275.264z M208.437,292.018
		c-4.606,0-4.836-8.532-4.836-10.242c0-9.622,4.562-19.578,12.207-19.578c1.645,0,3.133,0.305,4.52,0.934l-0.188,1.062
		c-0.496,2.84-0.984,5.653-1.324,8.09C216.625,283.717,212.261,292.018,208.437,292.018z"></path>
	<path class="st0" d="M328.29,254.139c-1.254-0.473-2.497-0.715-3.703-0.715c-1.75,0-3.402,0.519-4.774,1.496l-1.016,0.726
		l-2.726,16.614c-1.805,9.122-5.906,18.938-10.629,18.938c-1.289,0-3.691,0-3.691-5.656c0-4.5,1.038-9.434,2.078-14.383
		c1.031-4.906,2.102-9.981,2.102-14.766v-2.973l0.012-0.34h-0.012v-0.082l-3.371,0.394c-2.59,0.301-4.39,1.114-6.805,2.512
		l-1.519,0.871v1.746c0,3.153-0.797,7.215-1.664,11.61c-1.035,5.226-2.102,10.633-2.102,15.82c0,2.266,0.344,4.254,0.863,6.082
		c0.32,1.274,0.68,2.512,1.184,3.625l-0.02,0.012c-5.258,3.664-7.926,8.332-7.926,13.863c0,6.938,5.738,14.313,16.367,14.313
		c8.242,0,18.914-4.875,22.969-28.122c2.078-14.027,4.57-28.531,6.289-38.23l0.446-2.477L328.29,254.139z M311.915,298.253
		c-1.906,10.961-4.074,16.527-9.34,16.527c-1.691,0-7.211-0.504-7.211-6.969c0-2.707,0.363-4.832,2.222-7.688l0.051-0.078
		c1.554,0.691,3.324,1.043,5.27,1.043c2.598,0,4.977-0.782,7.226-1.993C310.727,298.803,311.345,298.62,311.915,298.253z"></path>
	<polygon class="st0" points="305.919,386.261 305.919,386.206 305.919,386.206 305.919,386.128 108.562,386.128 108.562,394.671
		305.919,394.671 	"></polygon>
	<polygon class="st0" points="305.919,410.078 305.919,410.026 305.919,410.026 305.919,409.949 109.843,409.949 108.64,409.949
		108.64,409.949 108.562,409.949 108.562,418.491 305.919,418.491 	"></polygon>
</g>
</svg>
